<svg width="38" height="44" viewBox="0 0 38 44" fill="none" xmlns="http://www.w3.org/2000/svg">
<path fill-rule="evenodd" clip-rule="evenodd" d="M19.0927 0.660034C20.4734 0.660034 21.5927 1.77932 21.5927 3.16003V27.1514L33.2348 15.5093C34.2111 14.533 35.794 14.533 36.7703 15.5093C37.7467 16.4856 37.7467 18.0685 36.7703 19.0448L20.8604 34.9547C19.8841 35.931 18.3012 35.931 17.3249 34.9547L1.415 19.0448C0.438688 18.0685 0.438688 16.4856 1.415 15.5093C2.39131 14.533 3.97422 14.533 4.95053 15.5093L16.5927 27.1514V3.16003C16.5927 1.77932 17.712 0.660034 19.0927 0.660034ZM0.400391 40.5989C0.400391 39.2182 1.51968 38.0989 2.90039 38.0989H35.1672C36.5479 38.0989 37.6672 39.2182 37.6672 40.5989C37.6672 41.9796 36.5479 43.0989 35.1672 43.0989H2.90039C1.51968 43.0989 0.400391 41.9796 0.400391 40.5989Z" fill="#F5F0E9"/>
</svg>
