<svg width="156" height="63" viewBox="0 0 156 63" fill="none" xmlns="http://www.w3.org/2000/svg">
<path d="M28.8702 59.291C27.9172 59.2838 26.9754 59.0853 26.1006 58.7073C24.1518 57.8624 22.9536 56.1045 23.0479 54.2303C23.0686 53.6027 23.2125 52.9853 23.4715 52.4132C22.7539 51.046 22.7188 49.2596 23.3947 47.6926C24.1343 45.9743 25.7583 44.7628 27.4327 44.6794C28.6025 44.6202 29.6668 45.1008 30.6039 46.1081C31.1059 45.8944 31.6384 45.7611 32.1818 45.7131C33.6522 45.5902 35.0502 46.0511 35.9631 46.4614C38.1116 47.4293 40.0034 49.7533 39.0707 52.5624C38.3794 54.6495 35.5593 56.6115 33.0619 56.7936C32.7222 57.5671 32.1479 58.2143 31.4203 58.6436C30.6433 59.0833 29.7628 59.3068 28.8702 59.291ZM27.6149 45.4256H27.4679C26.0918 45.4958 24.7005 46.547 24.0816 47.9845C23.4627 49.422 23.5198 51.0262 24.2155 52.2091L24.323 52.3912L24.2243 52.5778C23.9524 53.0992 23.8023 53.6755 23.7853 54.2632C23.7085 55.8214 24.729 57.294 26.3859 58.0138C27.6654 58.5668 29.5571 58.8521 31.0253 57.9897C31.6805 57.6029 32.1814 57.0011 32.443 56.2866L32.5352 56.0672H32.7832C35.026 56.0079 37.7276 54.1974 38.3443 52.3364C39.1299 49.9662 37.4928 47.9889 35.6405 47.1571C34.8088 46.7841 33.5447 46.3583 32.2301 46.4702C31.681 46.5187 31.1455 46.6675 30.65 46.9091L30.3911 47.0298L30.2067 46.8104C29.4364 45.8909 28.563 45.4256 27.6149 45.4256Z" fill="#22333B"/>
<path d="M32.5416 42.4059H32.4691C30.5247 42.3686 28.7252 40.8872 27.7771 39.6297C27.2839 38.9842 26.8924 38.267 26.6161 37.5031C24.7946 38.4205 22.3521 38.5631 20.5042 36.3839C18.9482 34.5492 18.494 31.9947 19.3498 29.9033C19.5741 29.3618 19.8693 28.8526 20.2277 28.389C18.5181 27.5111 17.3198 26.1242 16.9117 24.5375C16.4223 22.6348 17.0806 20.2909 18.4808 18.9676C19.0916 18.3794 19.879 18.0085 20.7215 17.912C19.295 14.0429 20.0631 11.1285 22.9578 9.4672C24.878 8.3699 27.5664 8.31723 29.5152 9.34869C30.674 9.96537 31.4091 10.9617 31.9775 11.9405C32.2654 11.4465 32.599 10.9807 32.9739 10.5491C33.9236 9.48568 35.1173 8.66858 36.4523 8.168C39.1056 7.15849 42.0683 7.72908 44.0017 9.61204C46.4772 12.0261 47.1115 16.1124 46.6352 19.0839C46.2929 21.2478 45.2702 23.0188 43.4355 24.6143C44.6777 25.1366 46.1239 25.8784 47.3046 27.0283C49.1195 28.8147 49.2358 31.7314 48.5423 33.8316C47.8006 36.081 45.5731 37.7819 42.9988 38.0693C41.2431 38.2625 39.5928 37.7226 38.3441 37.2288C38.0741 37.1213 37.8086 37.0094 37.5496 36.8711C37.3806 37.7139 37.0885 38.5273 36.6828 39.2851C35.5525 41.359 34.159 42.4059 32.5416 42.4059ZM27.0858 36.3641L27.2241 36.9238C27.2372 36.9742 27.2482 37.0247 27.2636 37.073C27.5142 37.8311 27.8903 38.5418 28.3762 39.1754C29.2255 40.299 30.81 41.6224 32.4845 41.6531C33.8188 41.6838 35.0214 40.7621 36.0288 38.9274C36.4723 38.087 36.7691 37.1771 36.9066 36.2369L37.001 35.7036L37.4662 35.9757C37.8365 36.1915 38.2223 36.3793 38.6206 36.5375C39.7881 36.9984 41.3309 37.5031 42.9154 37.3298C45.2022 37.0752 47.1773 35.5741 47.8291 33.599C48.448 31.7226 48.3624 29.1286 46.7757 27.5682C45.7837 26.5916 44.4867 25.8125 42.5752 25.073L41.9651 24.8359L42.4765 24.4277C44.4933 22.8279 45.5489 21.1359 45.8935 18.9632C46.3192 16.2704 45.742 12.3641 43.4794 10.1453C41.7567 8.46207 39.1056 7.95073 36.7244 8.86588C35.5015 9.32856 34.4094 10.0817 33.5423 11.0605C33.0599 11.6228 32.6479 12.2418 32.3155 12.9039L31.9819 13.5228L31.6484 12.8973C31.08 11.8461 30.3733 10.6698 29.1619 10.0115C27.4655 9.10948 25.0141 9.15557 23.333 10.119C20.6534 11.6662 20.0719 14.3568 21.6081 18.1315L21.8275 18.6472H21.2504C20.834 18.6373 20.4198 18.7098 20.0315 18.8604C19.6432 19.0111 19.2885 19.2369 18.9877 19.525C17.7917 20.6552 17.2057 22.7335 17.6249 24.3531C18.009 25.8498 19.2248 27.149 20.9585 27.915L21.4237 28.1212L21.0902 28.5053C20.6492 29.0057 20.2934 29.5751 20.0368 30.1907C19.2994 32.0079 19.7142 34.3012 21.0704 35.8967C22.5057 37.5887 24.5818 37.8718 26.6403 36.6253L27.0858 36.3641ZM31.7076 25.5931C30.8188 25.5931 29.8971 25.1366 29.4735 24.3773C29.3182 24.0901 29.2337 23.77 29.2272 23.4436C29.2207 23.1172 29.2924 22.794 29.4362 22.5009C29.5688 22.204 29.768 21.9416 30.0185 21.7341C30.2689 21.5267 30.5638 21.3798 30.8802 21.3048C31.2951 21.1352 31.75 21.0887 32.1905 21.1709C32.6311 21.253 33.0387 21.4602 33.3645 21.7679C33.6036 21.9966 33.7839 22.2796 33.8902 22.5929C33.9964 22.9062 34.0254 23.2405 33.9746 23.5675C33.9271 23.9363 33.7937 24.2888 33.5852 24.5968C33.3767 24.9047 33.0989 25.1595 32.7742 25.3407C32.4447 25.511 32.0785 25.5977 31.7076 25.5931ZM31.7515 21.8798C31.5436 21.8792 31.3379 21.9226 31.148 22.0071L31.0668 22.0334C30.8578 22.0805 30.6628 22.1762 30.4977 22.3127C30.3326 22.4492 30.202 22.6227 30.1165 22.8191C30.0248 23.0052 29.9784 23.2104 29.9811 23.4179C29.9838 23.6253 30.0354 23.8293 30.1319 24.013C30.5313 24.7306 31.6879 25.0664 32.4208 24.6713C32.6406 24.5474 32.8281 24.3737 32.9684 24.164C33.1087 23.9544 33.1978 23.7147 33.2285 23.4643C33.2625 23.2561 33.2459 23.0427 33.1802 22.8422C33.1145 22.6417 33.0016 22.4599 32.851 22.3122C32.553 22.0323 32.1603 21.8756 31.7515 21.8732V21.8798Z" fill="#22333B"/>
<path d="M15.4854 27.4827C15.0619 25.6567 14.6712 23.8265 14.1687 22.0181C13.6837 20.2471 13.2557 18.4826 13.8088 16.6787C14.7261 13.6874 16.6464 11.2273 16.6135 7.95515C16.5915 4.76202 14.2565 2.42697 11.1862 1.84321C7.98431 1.23311 5.24546 2.37649 3.12109 4.77518C1.9821 6.06122 1.02964 7.54257 0.678509 9.24557C0.32079 10.9859 0.375655 12.7569 0.478801 14.5236C0.756268 18.8326 1.42769 23.1073 2.48466 27.2939C3.58196 31.7731 4.24034 36.3422 4.92724 40.9004C4.98959 41.2671 5.1898 41.5961 5.48687 41.8199C5.93623 42.7727 6.6344 43.5865 7.50772 44.1755C8.38104 44.7646 9.39714 45.107 10.4488 45.1667C13.9997 45.4147 15.8058 42.2193 16.3918 39.1645C17.1446 35.2361 16.3742 31.3166 15.4854 27.4827ZM11.375 10.3253C11.0242 11.0834 10.5454 11.7753 9.95945 12.3707C9.38227 12.9939 8.75462 13.626 7.92067 13.8762C7.50828 13.9928 7.07164 13.9931 6.65913 13.8769C6.24661 13.7607 5.8743 13.5325 5.58343 13.2178C4.94919 12.5594 4.83068 11.653 4.72095 10.7884C4.71494 10.7153 4.71494 10.6419 4.72095 10.5689C4.71477 10.0282 4.90151 9.503 5.24765 9.08756C6.22205 7.86298 7.5432 6.35968 9.25059 6.35529C9.69454 6.35322 10.1306 6.47228 10.5119 6.69967C10.8932 6.92705 11.2053 7.25414 11.4145 7.64571C11.8709 8.49063 11.7437 9.4782 11.375 10.3253Z" fill="#22333B"/>
<path d="M46.4311 62.9011C45.3311 62.8648 44.256 62.5637 43.2972 62.0233C42.257 61.4527 41.592 60.4388 41.6052 59.438C41.6161 58.5778 42.1143 57.8513 43.0075 57.3949C43.0466 57.3729 43.0869 57.3532 43.1282 57.3356C43.0756 57.1952 43.0251 57.0547 42.9812 56.9121C42.6015 55.6677 42.8824 54.3861 43.7186 53.5631C43.9679 53.3156 44.2714 53.1296 44.6051 53.0199C44.9388 52.9102 45.2935 52.8798 45.641 52.9311C45.9604 52.9824 46.2631 53.1085 46.5244 53.2993C46.7857 53.49 46.9981 53.7398 47.1443 54.0284C47.4053 54.6028 47.5429 55.2256 47.5481 55.8565C47.5776 55.8478 47.6077 55.8412 47.6381 55.8367C47.8449 55.7845 48.0601 55.7744 48.2708 55.8071C48.4816 55.8398 48.6836 55.9146 48.8649 56.027C49.0461 56.1394 49.2029 56.2872 49.3258 56.4615C49.4487 56.6358 49.5353 56.8331 49.5803 57.0415C49.6768 57.4267 49.6447 57.8329 49.489 58.1981C49.3333 58.5634 49.0625 58.8678 48.7179 59.065C49.3214 60.0503 49.5299 61.2903 48.5094 62.2032C47.9276 62.6865 47.1866 62.9353 46.4311 62.9011ZM45.3053 53.6487C44.9082 53.651 44.5278 53.8085 44.2453 54.0876C43.611 54.7109 43.4025 55.705 43.6988 56.6794C43.7427 56.8177 43.7932 56.9538 43.8437 57.0898C43.8941 57.2259 43.9249 57.3093 43.9622 57.4146L44.0807 57.7701L43.7273 57.8909C43.598 57.9346 43.4718 57.9874 43.3499 58.0489C42.7091 58.3802 42.3645 58.8587 42.3579 59.4337C42.3579 60.1491 42.8715 60.9194 43.6571 61.3495C44.9892 62.0781 46.9271 62.5873 48.0068 61.6217C48.99 60.7438 48.1297 59.4688 47.8422 59.0979L47.4911 58.648L48.0946 58.4922C48.3657 58.421 48.5975 58.2451 48.7391 58.0032C48.8806 57.7612 48.9204 57.473 48.8495 57.2017C48.826 57.0866 48.7789 56.9776 48.7111 56.8816C48.6433 56.7856 48.5563 56.7047 48.4557 56.6441C48.355 56.5835 48.2428 56.5444 48.1263 56.5293C48.0097 56.5142 47.8913 56.5235 47.7786 56.5565C47.6974 56.5719 47.6162 56.5917 47.5306 56.6136H47.5042C47.4077 56.6312 47.3133 56.6443 47.2189 56.6531L46.8195 56.6882V56.2866C46.8042 55.5843 46.7537 54.8645 46.486 54.3532C46.3943 54.169 46.2597 54.0094 46.0936 53.888C45.9275 53.7666 45.7347 53.6867 45.5313 53.6553C45.4562 53.6472 45.3807 53.645 45.3053 53.6487Z" fill="#22333B"/>
<path d="M74.1756 26.2339C74.0746 22.0817 74.1405 17.9273 73.7959 13.7861C73.6006 11.3721 73.3855 8.80002 72.5055 6.50886C72.0534 5.32817 71.395 4.11676 70.0914 3.7349C68.6298 3.30914 67.3109 4.17381 66.624 5.43132C65.6979 7.10799 65.654 9.17749 65.7856 11.0407C65.9349 13.119 66.1982 15.1929 66.4265 17.2646C66.6745 19.5338 66.9378 21.8008 67.199 24.0678C67.2648 24.645 67.3394 25.2222 67.4184 25.8015C67.199 25.3626 66.9795 24.9193 66.76 24.4716C65.4433 21.7701 64.1134 19.0685 62.6847 16.4197C61.3679 13.9639 60.1104 11.484 58.8134 9.01509C57.8807 7.24186 56.0943 4.63907 53.8492 5.24697C52.5083 4.97484 50.9282 5.71881 50.9326 7.48765C50.948 13.0948 51.4901 18.6801 51.8324 24.2653C52.1331 29.19 51.0314 34.9815 53.5398 39.487C54.4901 41.1944 56.632 42.0854 58.166 40.479C59.2041 39.3817 59.2874 37.6128 59.4213 36.2083C59.8449 31.7928 60.0599 27.487 59.0965 23.1176C58.6444 21.0693 58.1324 19.0276 57.5603 16.9924C57.8251 17.4592 58.0848 17.9288 58.3394 18.4014C60.2333 21.8776 61.9385 25.4548 63.6876 29.0078C64.3855 30.4277 64.8683 31.3934 65.3709 32.6816C65.8734 33.9698 66.3606 35.3349 67.1375 36.4914C67.9649 37.7226 69.1741 38.9055 70.763 38.9055C72.3892 38.9186 73.5369 37.6743 73.8727 36.1666C74.5969 32.9647 74.2524 29.4797 74.1756 26.2339Z" fill="#22333B"/>
<path d="M94.2277 14.1812C92.2701 11.0407 89.9131 7.55572 86.7003 5.57181C84.2686 4.0729 80.7639 3.6252 79.1113 6.48476C77.9811 8.43795 78.2335 11.1263 78.2138 13.288C78.1962 14.6925 78.2006 16.0971 78.1918 17.5016C78.1721 17.6223 78.1501 17.7408 78.1326 17.8615C77.796 20.2471 77.7452 22.6644 77.9811 25.062C77.8574 27.8481 77.9072 30.6391 78.1304 33.419C78.0733 33.8075 78.0316 34.1893 77.9987 34.5558C77.8165 36.6297 78.6571 38.7585 80.5115 39.8558C82.2935 40.9157 84.2972 40.5953 86.2174 40.1937C90.0668 39.3883 93.9402 38.1769 96.9402 35.528C103.511 29.7299 97.8663 20.01 94.2277 14.1812ZM89.5181 18.8513C89.6476 18.9808 89.7837 19.119 89.9175 19.2617C90.1288 19.5935 90.263 19.9685 90.3104 20.359C90.4333 21.634 89.1889 22.7028 88.175 23.2273C87.655 23.4957 87.092 23.671 86.5115 23.7452C86.2504 23.7782 85.6468 23.7847 85.6447 23.7826C85.243 23.438 85.2386 22.4658 85.1794 21.983C85.0719 21.1051 85.0389 20.2273 84.9599 19.3495C84.8612 18.1951 84.9753 16.9135 84.9424 15.8776C85.4515 16.0289 85.9488 16.2174 86.4303 16.4416C87.5658 17.0986 88.6049 17.9095 89.5181 18.8513ZM84.9424 15.7174C85.028 15.656 84.9424 15.4343 84.9424 15.7174Z" fill="#22333B"/>
<path d="M122.347 30.2609C118.616 25.5623 113.755 29.9186 109.669 27.217C109.604 27.172 109.542 27.1237 109.482 27.0722C109.739 26.9696 110.004 26.8888 110.274 26.8308C112.568 26.675 114.848 26.7957 116.661 24.1709C117.626 22.7752 117.464 20.3457 116.661 18.9039C115.412 16.6742 113.435 16.5535 111.71 16.8739C110.797 17.0451 110.173 17.2316 109.377 17.3589C108.91 17.4496 108.433 17.4791 107.959 17.4467C108.938 16.593 110.193 16.0509 111.591 15.6537C111.775 15.601 111.96 15.5527 112.146 15.5067C112.418 15.4584 112.688 15.4101 112.963 15.3838C114.108 15.2696 115.254 15.2828 116.399 15.1292C118.851 14.8 121.666 15.1292 122.937 10.9792C123.53 9.02602 123.376 6.62733 122.448 5.00333C121.519 3.37933 120.227 2.91627 118.91 2.74071C116.404 2.40932 113.97 3.72389 111.49 3.98285C108.87 4.25717 105.703 2.541 103.515 5.7056C101.72 8.30181 102.102 12.1007 102.229 15.5352C102.238 15.7711 102.26 16.0063 102.295 16.2397C102.295 16.9266 102.308 17.6091 102.343 18.2762C102.633 24.0041 102.297 30.9764 104.788 35.6135C106.789 39.3443 110.193 40.0554 113.075 40.2683C116.636 40.5294 120.446 39.5879 122.716 34.7708C123.262 33.5945 123.08 31.1848 122.347 30.2609Z" fill="#22333B"/>
<path d="M148.906 35.5675C148.076 33.5221 146.409 31.8367 144.932 30.228C143.884 29.1133 142.764 28.068 141.58 27.0985C140.036 25.7672 138.583 24.3339 137.231 22.8081C136.597 22.1168 135.956 21.4321 135.361 20.7057C135.083 20.3673 134.822 20.0142 134.582 19.6479C134.561 19.6171 134.542 19.5848 134.525 19.5513C134.852 19.4723 135.231 19.3889 135.471 19.3319C138.508 18.7284 141.67 17.506 143.591 14.9427C145.735 12.0897 146.077 7.36914 143.999 4.40863C141.98 1.52494 137.981 0.20379 134.562 0.353022C132.927 0.425444 131.242 0.526395 129.734 1.23086C128.013 2.04505 126.951 3.62736 126.442 5.42692C125.85 7.51837 125.951 9.72174 125.933 11.8703C125.915 14.1548 125.933 16.3736 126.126 18.6537C126.291 20.5718 126.427 22.4928 126.532 24.4167C126.532 25.062 126.576 25.7028 126.626 26.3414C126.714 28.356 126.762 30.3692 126.769 32.3809C126.769 34.6457 126.782 36.9106 126.94 39.1732C126.954 39.3679 126.988 39.5606 127.041 39.7482C127.23 40.7511 127.7 41.6597 128.659 42.2215C130.487 43.2903 132.389 42.0218 133.381 40.4658C134.391 38.8682 134.49 36.735 134.569 34.9047C134.641 33.2258 134.654 31.5009 134.387 29.8374C134.347 29.585 134.301 29.3326 134.253 29.0803C134.85 29.7913 135.295 30.6165 135.991 31.2551C136.741 31.9376 137.608 32.4446 138.335 33.1578C139.018 33.822 139.67 34.5163 140.292 35.2405C141.324 36.4409 142.109 37.9442 143.308 38.9713C144.587 40.0796 146.365 40.5514 147.881 39.6121C149.338 38.7606 149.49 37.0049 148.906 35.5675ZM131.435 7.93973C131.499 7.85398 131.568 7.77192 131.641 7.69394C131.746 7.46349 131.904 7.26138 132.102 7.10447C132.301 6.94757 132.534 6.84042 132.782 6.79196C134.538 6.55275 136.794 6.21478 138.15 7.65005C138.498 8.03088 138.716 8.512 138.774 9.02449C138.831 9.53698 138.725 10.0545 138.471 10.503C138.063 11.2602 137.272 11.7232 136.496 12.0041C135.705 12.2492 134.881 12.3735 134.053 12.3728C133.302 12.4035 132.466 12.4013 131.801 11.9953C130.243 11.0407 130.482 9.21918 131.435 7.93973Z" fill="#22333B"/>
<path d="M43.9231 50.5126C47.6407 50.5017 51.354 50.2932 55.0694 50.2273C58.6027 50.1681 62.0921 50.4139 65.6254 50.5917C69.1587 50.7694 72.7074 50.8528 76.2495 50.8111C79.842 50.7782 83.3819 50.5917 86.9723 50.8287C90.5275 51.0745 93.9818 50.5192 97.5305 50.5214C100.974 50.5214 104.415 50.6487 107.86 50.6421C111.396 50.6421 114.934 50.6312 118.467 50.5039C120.223 50.4402 121.978 50.2339 123.754 50.133C125.718 50.0211 127.653 50.2361 129.613 50.223C133.564 50.1988 137.562 49.4944 141.477 49.0269C145.566 48.5375 149.663 48.1096 153.784 48.0876C156.199 48.0723 156.21 44.3129 153.784 44.3261C146.49 44.3678 139.3 45.6999 132.058 46.3166C130.267 46.4384 128.471 46.4472 126.679 46.3429C124.904 46.3085 123.129 46.3817 121.364 46.5624C117.76 46.8565 114.137 46.8586 110.525 46.8784C106.974 46.8981 103.427 46.8784 99.8787 46.7994C98.2481 46.7599 96.6153 46.7401 94.9847 46.8235C93.1764 46.9157 91.3988 47.2229 89.5838 47.201C87.8479 47.1791 86.1208 46.9815 84.387 46.9047C82.6533 46.8279 80.8932 46.953 79.1441 47.0013C75.4441 47.1044 71.7396 47.0737 68.0395 46.9333C64.12 46.7862 60.218 46.4197 56.294 46.4483C52.1726 46.479 48.0577 46.7357 43.9341 46.7467C41.52 46.7467 41.52 50.5126 43.9341 50.5083L43.9231 50.5126Z" fill="#22333B"/>
<path d="M5.78758 51.4125C7.01655 51.4125 8.217 51.6868 9.43938 51.7022C10.5213 51.7154 11.5835 51.4366 12.6654 51.4081C14.7218 51.3576 16.7913 51.6912 18.7949 51.0614C21.0949 50.3372 20.1117 46.7051 17.7942 47.4337C16.0385 47.9889 14.1336 47.561 12.3077 47.6532C11.3465 47.7058 10.3984 47.9472 9.43061 47.9363C8.20822 47.9187 7.01655 47.6422 5.7788 47.6444C3.36475 47.6444 3.36475 51.4103 5.7788 51.4059L5.78758 51.4125Z" fill="#22333B"/>
</svg>
